# xmcd CD database file
#
# Track frame offsets:
#	150
#	16620
#	28430
#	45032
#	58847
#	75937
#	94502
#	105827
#	116657
#	129320
#	146910
#	161092
#	177867
#	193897
#	222222
#
# Disc length: 3946 seconds
#
# Revision: 0
# Processed by: cddbd v1.5.2PL0 Copyright (c) Steve Scherf et al.
# Submitted via: CDex 1.70beta2
#
DISCID=be0f680f
DTITLE=Enya - Only Time_The Collection [CD4]
DYEAR=1900
DGENRE=New Age
TTITLE0=Only Time (Original Album Version)
TTITLE1=A Day Without Rain
TTITLE2=Song Of The Sandman (Lullaby)
TTITLE3=Willows On The Water
TTITLE4=Wild Child (Album Version)
TTITLE5=Flora's Secret
TTITLE6=Fallen Embers
TTITLE7=Tempus Vernum
TTITLE8=Deora Ar Mo Chroi
TTITLE9=One By One
TTITLE10=The First Of Autumn
TTITLE11=Lazy Days
TTITLE12=May It Be (Single Version)
TTITLE13=Silent Night
TTITLE14=Silent Night [CD-ROM video footage from BBC TV performance)
EXTD=
EXTT0=
EXTT1=
EXTT2=
EXTT3=
EXTT4=
EXTT5=
EXTT6=
EXTT7=
EXTT8=
EXTT9=
EXTT10=
EXTT11=
EXTT12=
EXTT13=
EXTT14=
PLAYORDER=
